<svg xmlns="http://www.w3.org/2000/svg" viewBox="0 0 712.98 122.24"><title>readysight-logo--white.svg</title><g id="Layer_2" data-name="Layer 2"><g id="Layer_1-2" data-name="Layer 1"><path d="M259.53,93.93c-.8-2.39-1.33-3.85-1.33-11.41V67.92c0-8.62-2.92-11.8-9.55-11.8h-5V93.93H229V1.06h22c15.12,0,21.62,7,21.62,21.36v7.3c0,9.55-3.05,15.65-9.55,18.7v.27c7.29,3.05,9.68,10,9.68,19.63V82.65c0,4.51.14,7.83,1.6,11.28Zm-15.92-79.6V42.85h5.7c5.44,0,8.76-2.39,8.76-9.82V23.88c0-6.63-2.26-9.55-7.43-9.55Z" style="fill:#fff"/><path d="M296.94,40.2h20V53.46h-20v27.2h25.2V93.93H282.35V1.06h39.79V14.33h-25.2Z" style="fill:#fff"/><path d="M378.4,93.93H363.67l-2.52-16.85H343.24l-2.52,16.85h-13.4L342.18,1.06h21.36ZM345.1,64.47h14.06l-6.9-47H352Z" style="fill:#fff"/><path d="M385.17,1.06h23.08C422.84,1.06,430,9.15,430,24V71c0,14.86-7.17,23-21.76,23H385.17Zm14.59,13.27V80.66H408c4.65,0,7.43-2.39,7.43-9V23.35c0-6.63-2.78-9-7.43-9Z" style="fill:#fff"/><path d="M451,63.15,432.53,1.06h15.25l11,42.32h.27l11-42.32H484L465.56,63.15V93.93H451Z" style="fill:#fff"/><path d="M508.55,0C522.74,0,530,8.49,530,23.35v2.92h-13.8V22.42c0-6.63-2.65-9.15-7.3-9.15s-7.29,2.52-7.29,9.15,2.92,11.81,12.47,20.17c12.2,10.74,16,18.44,16,29.05,0,14.86-7.43,23.35-21.76,23.35s-21.75-8.49-21.75-23.35V65.93h13.79v6.64c0,6.63,2.92,9,7.56,9s7.57-2.39,7.57-9-2.92-11.81-12.47-20.17c-12.21-10.74-16.05-18.44-16.05-29C487.06,8.49,494.35,0,508.55,0Z" style="fill:#fff"/><path d="M538.53,1.06h14.59V93.93H538.53Z" style="fill:#fff"/><path d="M585.63,42.19h20.43V71.64C606.06,86.5,598.63,95,584.3,95s-21.76-8.49-21.76-23.35V23.35C562.54,8.49,570,0,584.3,0s21.76,8.49,21.76,23.35v9h-13.8V22.42c0-6.63-2.92-9.15-7.56-9.15s-7.57,2.52-7.57,9.15V72.57c0,6.63,2.92,9,7.57,9s7.56-2.39,7.56-9V55.45h-6.63Z" style="fill:#fff"/><path d="M630.07,93.93H615.48V1.06h14.59v39.8h16.58V1.06h14.86V93.93H646.65V54.13H630.07Z" style="fill:#fff"/><path d="M667.88,1.06H713V14.33H697.73v79.6h-14.6V14.33H667.88Z" style="fill:#fff"/><path d="M103.83,14.7a100.86,100.86,0,0,1,87,50.23l6.48,11.24L207.7,65.81l-4.6-8A114.58,114.58,0,0,0,103.83.56a114.18,114.18,0,0,0-82.5,35.06l-4.82,5L42.27,66.39A85.55,85.55,0,0,0,60.69,81,85.26,85.26,0,0,0,147,81,85.77,85.77,0,0,0,160.3,71.3l10.88,10.88a99.5,99.5,0,0,1-67.35,25.91,100.85,100.85,0,0,1-87-50.23L10.35,46.68,0,57l4.56,7.91a115.4,115.4,0,0,0,41.15,41.49,114.57,114.57,0,0,0,58.12,15.81,114,114,0,0,0,45.6-9.43,114.25,114.25,0,0,0,36.92-25.65l4.81-5L165.39,56.4a85,85,0,0,0-118-4.91L36.49,40.6A99.49,99.49,0,0,1,103.83,14.7ZM86.63,61.39a17.21,17.21,0,1,1,17.2,17.21A17.22,17.22,0,0,1,86.63,61.39Zm63.53,0a70.81,70.81,0,0,1-10.37,7.44,67.8,67.8,0,0,1-6.55,3.41,31.28,31.28,0,0,0,0-21.69A67.8,67.8,0,0,1,139.79,54,71.5,71.5,0,0,1,150.16,61.39ZM67.87,54a69,69,0,0,1,6.55-3.41,31.43,31.43,0,0,0,0,21.69,69,69,0,0,1-6.55-3.41,70.19,70.19,0,0,1-10.36-7.44A70.86,70.86,0,0,1,67.87,54Z" style="fill:#fff"/><path d="M228.78,121.76h-1.71V105h10.14v1.52h-8.43v5.82h7.84v1.52h-7.84Z" style="fill:#fff"/><path d="M243.55,121.76h-1.71V105h1.71Z" style="fill:#fff"/><path d="M251.15,120.24h9v1.52H249.44V105h10.43v1.52h-8.72v5.77h8.15v1.52h-8.15Z" style="fill:#fff"/><path d="M266.64,120.24h7.84v1.52h-9.55V105h1.71Z" style="fill:#fff"/><path d="M278.47,105h5.58a9.89,9.89,0,0,1,3.14.52,8.8,8.8,0,0,1,2.86,1.58,8,8,0,0,1,2.05,2.64,9,9,0,0,1,0,7.35,8.08,8.08,0,0,1-2.05,2.62,8.62,8.62,0,0,1-2.86,1.58,9.89,9.89,0,0,1-3.14.52h-5.58Zm1.71,15.29h3.39a8.49,8.49,0,0,0,3.32-.59,7.05,7.05,0,0,0,2.34-1.56,6.3,6.3,0,0,0,1.38-2.19,7.13,7.13,0,0,0,0-5.09,6.3,6.3,0,0,0-1.38-2.19,7.05,7.05,0,0,0-2.34-1.56,8.67,8.67,0,0,0-3.32-.59h-3.39Z" style="fill:#fff"/><path d="M313.38,107.66a4.15,4.15,0,0,0-1.4-1.23,4.28,4.28,0,0,0-2.07-.46,4.33,4.33,0,0,0-1.26.19,3.72,3.72,0,0,0-1.16.58,2.88,2.88,0,0,0-.84,1,2.81,2.81,0,0,0-.32,1.4,2.64,2.64,0,0,0,.3,1.33,3,3,0,0,0,.82.89,4.71,4.71,0,0,0,1.16.6l1.36.48c.59.19,1.18.4,1.77.62a6.63,6.63,0,0,1,1.6.86,4,4,0,0,1,1.61,3.44,4.46,4.46,0,0,1-1.73,3.68,5.34,5.34,0,0,1-1.75.88,7.14,7.14,0,0,1-2,.28A7.91,7.91,0,0,1,308,122a7.23,7.23,0,0,1-1.45-.47,5.85,5.85,0,0,1-1.28-.78,6,6,0,0,1-1-1.09l1.47-1.1a4.34,4.34,0,0,0,1.53,1.51,4.3,4.3,0,0,0,2.32.61,4.62,4.62,0,0,0,1.3-.2,3.6,3.6,0,0,0,1.2-.62,3.45,3.45,0,0,0,.88-1,3.14,3.14,0,0,0,0-2.88,3.11,3.11,0,0,0-.91-1,5.52,5.52,0,0,0-1.31-.65c-.49-.18-1-.35-1.54-.53s-1.1-.37-1.64-.59a5.43,5.43,0,0,1-1.45-.87,3.92,3.92,0,0,1-1-1.31,4.21,4.21,0,0,1-.39-1.93,4.3,4.3,0,0,1,.48-2.09,4.56,4.56,0,0,1,1.27-1.45,5.38,5.38,0,0,1,1.74-.83,7.14,7.14,0,0,1,1.87-.26,6.36,6.36,0,0,1,2.92.61,5,5,0,0,1,1.83,1.43Z" style="fill:#fff"/><path d="M321.76,120.24h9v1.52H320.05V105h10.43v1.52h-8.72v5.77h8.15v1.52h-8.15Z" style="fill:#fff"/><path d="M337.25,121.76h-1.71V105h4.94a10.32,10.32,0,0,1,2.29.24,5,5,0,0,1,1.83.77,3.68,3.68,0,0,1,1.2,1.39,4.69,4.69,0,0,1,.42,2.09,4.16,4.16,0,0,1-.33,1.68,4.07,4.07,0,0,1-.9,1.32,4.35,4.35,0,0,1-1.35.89,6,6,0,0,1-1.71.43l4.91,8h-2.09l-4.65-7.86h-2.85Zm0-9.33h3a5.71,5.71,0,0,0,3.18-.75,2.53,2.53,0,0,0,1.11-2.24,3,3,0,0,0-.3-1.4,2.56,2.56,0,0,0-.86-.93,3.81,3.81,0,0,0-1.33-.52,8.39,8.39,0,0,0-1.73-.17h-3Z" style="fill:#fff"/><path d="M356.06,119.55h.05l5.46-14.6h1.83L357,121.76h-1.8L348.74,105h1.86Z" style="fill:#fff"/><path d="M368.83,121.76h-1.71V105h1.71Z" style="fill:#fff"/><path d="M388.88,119a6.82,6.82,0,0,1-1,1.21,6.59,6.59,0,0,1-1.4,1,7.87,7.87,0,0,1-1.76.69,8.17,8.17,0,0,1-2.1.25,9.23,9.23,0,0,1-3.52-.66,8.14,8.14,0,0,1-4.59-4.64,9.73,9.73,0,0,1,0-7.07,8.34,8.34,0,0,1,4.62-4.63,8.88,8.88,0,0,1,3.48-.67,9.11,9.11,0,0,1,1.81.19,8.07,8.07,0,0,1,1.68.55,6.9,6.9,0,0,1,1.42.84,4.64,4.64,0,0,1,1.07,1.1l-1.42,1a4.59,4.59,0,0,0-.7-.81,5,5,0,0,0-1-.71,6.18,6.18,0,0,0-1.29-.5,5.63,5.63,0,0,0-1.51-.19,7,7,0,0,0-2.93.59,6.61,6.61,0,0,0-2.2,1.6,7.09,7.09,0,0,0-1.38,2.33,8.44,8.44,0,0,0-.47,2.8,8.14,8.14,0,0,0,.48,2.79,7.29,7.29,0,0,0,1.39,2.33,6.82,6.82,0,0,0,2.2,1.6,7,7,0,0,0,2.91.59,6.63,6.63,0,0,0,2.75-.59,5.24,5.24,0,0,0,2.19-1.9Z" style="fill:#fff"/><path d="M395,120.24h9v1.52H393.25V105h10.43v1.52H395v5.77h8.15v1.52H395Z" style="fill:#fff"/><path d="M416.88,107.66a4.06,4.06,0,0,0-1.4-1.23,4.28,4.28,0,0,0-2.07-.46,4.33,4.33,0,0,0-1.26.19,3.83,3.83,0,0,0-1.16.58,2.88,2.88,0,0,0-.84,1,2.81,2.81,0,0,0-.32,1.4,2.64,2.64,0,0,0,.3,1.33,3,3,0,0,0,.82.89,4.71,4.71,0,0,0,1.16.6l1.36.48c.59.19,1.18.4,1.77.62a6.63,6.63,0,0,1,1.6.86,4,4,0,0,1,1.61,3.44,4.46,4.46,0,0,1-1.73,3.68,5.34,5.34,0,0,1-1.75.88,7.12,7.12,0,0,1-2,.28,7.76,7.76,0,0,1-1.52-.15,7,7,0,0,1-1.45-.47,5.69,5.69,0,0,1-1.29-.78,6,6,0,0,1-1-1.09l1.47-1.1a4.51,4.51,0,0,0,1.53,1.51,4.3,4.3,0,0,0,2.32.61,4.69,4.69,0,0,0,1.31-.2,3.65,3.65,0,0,0,1.19-.62,3.45,3.45,0,0,0,.88-1,3.14,3.14,0,0,0,0-2.88,3.11,3.11,0,0,0-.91-1,5.52,5.52,0,0,0-1.31-.65c-.49-.18-1-.35-1.54-.53s-1.1-.37-1.64-.59a5.43,5.43,0,0,1-1.45-.87,3.92,3.92,0,0,1-1-1.31,4.87,4.87,0,0,1,.09-4,4.56,4.56,0,0,1,1.27-1.45,5.48,5.48,0,0,1,1.74-.83,7.2,7.2,0,0,1,1.87-.26,6.44,6.44,0,0,1,2.93.61,5,5,0,0,1,1.82,1.43Z" style="fill:#fff"/></g></g></svg>