<?xml version="1.0" standalone="no"?>
<!DOCTYPE svg PUBLIC "-//W3C//DTD SVG 20010904//EN"
 "http://www.w3.org/TR/2001/REC-SVG-20010904/DTD/svg10.dtd">
<svg version="1.0" xmlns="http://www.w3.org/2000/svg"
 width="1368.000000pt" height="1368.000000pt" viewBox="0 0 1368.000000 1368.000000"
 preserveAspectRatio="xMidYMid meet">
<metadata>
Created by potrace 1.11, written by Peter Selinger 2001-2013
</metadata>
<g transform="translate(0.000000,1368.000000) scale(0.100000,-0.100000)"
fill="#000000" stroke="none">
<path d="M6397 10444 c-2 -3 -67 -7 -143 -10 -165 -7 -229 -11 -229 -13 0 -2
-25 -4 -55 -6 -128 -9 -186 -15 -210 -20 -14 -3 -45 -8 -70 -10 -25 -2 -54 -6
-65 -8 -22 -5 -103 -17 -150 -23 -16 -2 -61 -11 -98 -19 -38 -8 -73 -13 -78
-9 -5 3 -9 0 -9 -7 0 -7 -3 -10 -6 -7 -3 4 -20 2 -37 -3 -18 -5 -48 -12 -67
-15 -19 -3 -42 -7 -50 -10 -8 -3 -26 -8 -40 -10 -14 -3 -43 -10 -65 -16 -22
-6 -47 -12 -55 -12 -9 -1 -20 -5 -26 -9 -6 -3 -24 -9 -41 -11 -16 -3 -48 -12
-71 -20 -23 -9 -44 -15 -47 -16 -3 0 -6 0 -7 -1 -2 0 -10 -2 -18 -4 -23 -4
-379 -125 -415 -140 -93 -39 -139 -57 -155 -58 -10 -1 -16 -5 -14 -9 3 -4 2
-8 -3 -9 -23 -2 -43 -9 -88 -29 -206 -92 -408 -192 -550 -274 -44 -25 -92 -50
-107 -57 -16 -6 -28 -15 -28 -20 0 -5 -5 -9 -11 -9 -6 0 -24 -9 -40 -21 -16
-11 -29 -17 -29 -12 0 4 -4 3 -8 -3 -4 -6 -32 -26 -62 -45 -49 -30 -109 -69
-285 -190 -27 -19 -55 -41 -62 -49 -7 -8 -13 -11 -13 -6 0 5 -8 -1 -19 -12
-10 -12 -23 -22 -28 -22 -6 0 -21 -10 -34 -23 -13 -13 -44 -38 -69 -57 -149
-115 -312 -256 -449 -390 -31 -30 -59 -53 -63 -52 -5 1 -8 -1 -8 -6 0 -4 -85
-95 -190 -202 l-190 -195 68 -68 c37 -38 187 -188 334 -335 147 -146 264 -270
262 -274 -3 -5 -1 -7 4 -6 14 4 152 -135 145 -146 -3 -5 -2 -6 4 -3 11 7 69
-53 65 -67 -2 -6 0 -8 4 -3 9 9 285 -263 278 -275 -3 -5 -1 -7 3 -6 14 4 123
-105 116 -116 -3 -5 -2 -6 4 -3 14 9 209 -192 205 -212 -2 -11 0 -12 6 -4 6 9
18 2 44 -26 20 -22 39 -37 42 -34 3 4 6 -1 6 -10 0 -9 5 -17 10 -17 10 0 56
-39 116 -97 13 -13 28 -23 34 -23 14 0 13 -13 -2 -30 -11 -12 -10 -12 5 -1 15
12 21 11 40 -6 12 -11 33 -29 46 -39 14 -11 35 -29 47 -40 13 -12 24 -20 26
-18 2 2 19 -10 36 -26 18 -16 32 -27 32 -24 0 3 7 -2 16 -10 16 -17 99 -74
167 -117 23 -15 41 -32 39 -38 -1 -7 2 -10 8 -6 9 6 81 -34 116 -64 7 -5 14
-8 16 -5 3 2 17 -7 31 -20 14 -13 29 -21 32 -18 3 4 9 2 13 -3 8 -12 64 -44
152 -87 36 -18 68 -36 71 -41 3 -5 8 -7 10 -6 2 2 36 -12 74 -30 92 -44 118
-55 128 -53 4 1 7 -3 7 -8 0 -6 7 -10 15 -10 8 0 30 -9 50 -20 19 -11 38 -19
40 -19 3 1 25 -7 48 -17 23 -9 51 -19 62 -21 11 -2 24 -8 29 -13 6 -6 20 -10
33 -10 13 0 26 -7 29 -15 4 -8 10 -13 14 -10 12 7 90 -18 90 -28 0 -5 4 -6 9
-3 5 3 25 -1 45 -9 20 -9 41 -13 46 -10 4 3 14 -1 22 -8 7 -7 20 -12 28 -12 8
1 29 -4 47 -11 17 -7 34 -10 37 -6 3 3 6 0 6 -7 0 -7 5 -9 10 -6 6 4 18 1 27
-7 14 -11 16 -11 8 1 -6 11 -5 12 6 5 8 -4 19 -9 24 -11 19 -4 50 -11 95 -23
25 -6 56 -12 70 -14 22 -3 132 -23 170 -31 8 -2 15 -4 15 -5 0 -1 17 -3 37 -4
21 -1 40 -5 44 -8 3 -4 17 -4 30 -2 13 2 24 1 24 -4 0 -4 15 -8 33 -9 77 -2
147 -8 147 -13 0 -5 7 -6 273 -14 98 -3 182 -8 188 -11 5 -4 14 -3 20 1 18 11
153 11 168 0 11 -8 13 -8 8 1 -5 8 4 12 30 13 92 1 161 8 173 15 9 5 11 4 6
-3 -4 -7 -2 -12 3 -12 6 0 11 4 11 8 0 5 6 9 13 9 35 1 172 15 177 18 3 2 24
6 48 9 23 3 59 8 80 11 22 3 52 9 68 14 16 4 45 8 66 7 20 -1 34 2 32 6 -4 6
43 18 131 34 16 3 31 7 34 10 2 2 10 -1 18 -8 10 -8 12 -8 8 3 -3 9 1 15 12
17 10 1 25 3 33 5 54 13 77 19 90 25 8 3 20 7 25 7 6 1 17 5 25 8 8 3 35 11
60 17 25 7 50 16 55 20 6 4 21 10 35 12 14 1 28 8 33 13 4 6 11 4 17 -5 6 -10
10 -11 10 -3 0 15 68 46 81 37 5 -3 9 -1 9 3 0 13 68 35 81 27 7 -4 9 -3 5 4
-3 6 9 15 31 23 21 6 49 19 63 28 20 14 23 14 16 1 -4 -8 0 -6 8 4 9 11 16 17
16 13 0 -4 32 9 71 29 39 19 77 33 85 30 8 -3 13 -2 11 2 -1 4 2 8 7 9 5 1 12
5 15 10 12 16 52 34 63 27 6 -4 8 -3 5 3 -8 12 61 46 75 37 7 -5 8 -2 3 6 -6
10 -4 12 9 7 9 -4 15 -3 12 2 -5 8 17 23 37 25 4 1 11 7 16 14 5 8 10 12 12
10 2 -1 22 8 44 22 22 14 45 27 50 29 6 2 29 17 52 32 23 16 46 29 52 29 6 0
11 5 11 10 0 6 6 10 14 10 7 0 19 7 26 15 7 9 15 14 17 11 2 -2 18 9 35 25 17
15 35 26 39 24 4 -3 9 2 13 10 3 8 12 15 21 15 8 0 15 5 15 10 0 6 4 10 9 10
6 0 23 12 38 26 15 15 42 33 58 40 17 7 26 13 22 14 -11 0 17 28 33 32 6 2 32
22 57 45 26 24 48 41 50 39 2 -1 24 17 49 41 25 23 50 40 55 37 5 -3 8 -2 7 3
-3 8 5 13 21 13 5 0 12 -11 15 -25 4 -14 10 -24 14 -22 12 3 478 -464 474
-475 -1 -5 1 -7 6 -4 5 3 19 -5 32 -18 17 -19 20 -28 11 -43 -6 -10 -11 -15
-11 -11 0 4 -16 -8 -35 -28 -19 -19 -35 -32 -35 -30 0 3 -13 -7 -29 -22 -69
-65 -90 -82 -101 -82 -6 0 -8 -4 -5 -10 3 -5 1 -10 -5 -10 -6 0 -18 -6 -25
-12 -8 -7 -20 -18 -27 -23 -7 -6 -43 -34 -80 -63 -38 -30 -68 -51 -68 -48 0 2
-15 -8 -32 -25 -18 -16 -36 -29 -40 -29 -4 0 -19 -9 -32 -21 -13 -12 -27 -21
-30 -20 -3 1 -15 -8 -26 -19 -12 -12 -26 -18 -32 -14 -6 4 -9 3 -6 -2 4 -5
-57 -47 -133 -94 -77 -47 -146 -91 -154 -98 -8 -7 -15 -11 -15 -7 0 3 -10 0
-22 -7 -13 -7 -27 -11 -31 -10 -5 1 -6 -1 -3 -6 4 -7 -66 -46 -85 -47 -3 0
-13 -8 -23 -17 -16 -17 -30 -22 -48 -19 -5 0 -8 -4 -8 -10 0 -6 -7 -8 -16 -5
-8 3 -12 2 -9 -3 5 -9 -32 -27 -47 -23 -5 1 -8 -2 -8 -7 0 -5 -13 -12 -30 -16
-16 -4 -30 -11 -30 -16 0 -5 -9 -9 -20 -9 -11 0 -20 -4 -20 -10 0 -5 -7 -10
-16 -10 -8 0 -35 -11 -60 -25 -24 -13 -44 -22 -44 -19 0 4 -6 1 -13 -5 -8 -6
-17 -8 -20 -4 -4 3 -7 1 -7 -5 0 -6 -15 -14 -32 -18 -18 -3 -44 -14 -57 -23
-14 -9 -25 -14 -26 -13 0 4 -18 -3 -80 -29 -74 -31 -98 -38 -106 -33 -5 3 -9
1 -9 -4 0 -5 -15 -13 -32 -17 -18 -4 -35 -8 -38 -9 -3 -1 -9 -4 -15 -7 -5 -4
-23 -10 -40 -14 -37 -10 -34 -9 -68 -23 -15 -7 -38 -14 -50 -16 -12 -2 -48
-12 -81 -21 -32 -9 -64 -18 -70 -19 -6 -1 -17 -5 -23 -9 -7 -5 -13 -6 -13 -3
0 3 -11 1 -25 -4 -34 -13 -74 -22 -107 -23 -16 -1 -28 -6 -28 -11 0 -4 -11 -6
-25 -4 -15 3 -22 1 -18 -5 4 -6 0 -8 -10 -4 -9 3 -19 2 -22 -3 -3 -5 -13 -9
-23 -9 -9 0 -30 -2 -47 -6 -16 -3 -41 -7 -55 -9 -14 -2 -27 -5 -30 -6 -3 -1
-9 -2 -14 -1 -5 1 -16 -1 -25 -5 -9 -4 -23 -8 -31 -9 -8 -1 -37 -5 -65 -10
-58 -9 -102 -14 -165 -20 -25 -2 -45 -4 -45 -5 0 -1 -8 -3 -17 -5 -10 -2 -18
2 -18 8 0 8 -3 7 -9 -2 -5 -8 -30 -14 -70 -15 -33 0 -61 -3 -61 -6 0 -3 -24
-5 -53 -5 -28 0 -76 -2 -104 -5 -29 -4 -60 -2 -69 3 -11 6 -15 6 -10 -1 4 -7
-84 -9 -272 -6 -244 4 -377 9 -377 14 0 1 -114 9 -165 12 -8 0 -21 6 -29 12
-12 9 -13 8 -6 -3 6 -11 5 -12 -6 -5 -8 4 -27 9 -44 10 -16 1 -30 3 -30 3 0 1
-18 4 -40 7 -22 3 -49 7 -60 8 -11 2 -33 4 -48 5 -20 1 -26 5 -21 14 6 9 4 9
-8 -1 -9 -7 -19 -9 -22 -4 -3 5 -18 9 -33 10 -15 1 -39 4 -53 7 -14 3 -41 8
-60 11 -19 3 -36 9 -38 13 -1 4 -16 6 -32 5 -17 -1 -30 1 -30 4 0 4 -18 8 -40
10 -22 1 -52 7 -67 13 -16 6 -39 13 -53 16 -39 8 -43 9 -70 16 -14 4 -43 13
-65 18 -22 6 -50 16 -62 22 -13 6 -26 7 -30 4 -3 -4 -15 1 -26 10 -15 13 -18
14 -12 3 6 -12 5 -13 -6 -2 -7 6 -21 12 -31 12 -10 0 -18 5 -18 11 0 5 -4 8
-8 5 -10 -6 -201 57 -287 95 -11 4 -50 19 -87 33 -37 14 -77 30 -90 37 -13 7
-28 14 -34 15 -9 1 -87 37 -234 107 -25 12 -47 24 -50 27 -3 4 -21 12 -40 20
-19 8 -37 17 -40 20 -3 3 -20 12 -37 19 -18 8 -33 17 -33 22 0 5 -4 8 -9 6 -5
-1 -33 12 -62 29 -30 18 -85 50 -124 72 -38 22 -82 50 -97 61 -14 12 -31 21
-37 21 -6 0 -11 5 -11 10 0 6 -5 10 -10 10 -12 0 -106 62 -131 85 -9 8 -20 15
-26 15 -6 0 -17 7 -24 16 -7 9 -24 20 -37 25 -15 6 -21 14 -16 21 4 7 4 10 -1
6 -9 -8 -60 26 -119 77 -6 6 -35 28 -63 50 -29 21 -53 43 -53 47 0 4 -5 8 -11
8 -6 0 -21 9 -33 19 -65 59 -83 75 -103 88 -13 8 -20 20 -16 26 3 5 1 7 -5 3
-6 -3 -18 4 -26 16 -9 12 -16 20 -16 17 0 -4 -30 22 -67 57 -37 35 -70 64 -75
64 -4 0 -8 5 -8 10 0 11 -81 90 -92 90 -4 0 -10 9 -13 20 -3 11 -13 20 -21 20
-8 0 -14 4 -14 8 0 5 -19 29 -42 53 -24 25 -68 73 -98 108 -30 36 -67 77 -82
93 -15 15 -25 28 -22 28 3 0 -5 11 -18 24 -43 44 -59 67 -53 77 4 5 3 8 -2 7
-15 -5 -56 40 -50 56 4 11 1 13 -11 9 -9 -3 -14 -3 -11 1 4 4 -5 20 -20 36
-56 61 -283 395 -274 404 4 3 1 6 -5 6 -7 0 -12 7 -12 15 0 8 -4 15 -10 15 -5
0 -10 7 -10 15 0 8 -5 15 -11 15 -6 0 -9 6 -6 14 3 8 -1 17 -9 20 -8 3 -14 12
-14 21 0 8 -3 15 -8 15 -9 0 -38 61 -34 73 1 5 -2 6 -8 2 -5 -3 -10 1 -10 9 0
9 -4 16 -8 16 -9 0 -36 59 -35 77 0 7 -3 11 -7 8 -4 -2 -13 8 -21 23 -7 15
-18 34 -25 42 -6 8 -26 42 -43 74 -17 33 -35 64 -40 70 -5 6 -11 18 -13 26 -2
8 -7 18 -12 22 -5 3 -26 37 -47 74 -20 38 -41 70 -46 71 -14 5 -549 -536 -545
-550 2 -7 44 -83 93 -170 49 -86 89 -162 89 -167 0 -6 3 -10 8 -10 4 0 15 -17
25 -37 24 -51 49 -94 65 -111 6 -7 12 -20 12 -28 0 -8 4 -14 8 -14 5 0 17 -18
28 -40 10 -22 22 -40 27 -40 4 0 7 -6 7 -12 0 -7 11 -26 25 -42 13 -16 27 -37
30 -47 4 -11 11 -19 17 -19 6 0 9 -3 5 -6 -3 -3 -1 -11 4 -18 31 -36 89 -119
85 -123 -2 -3 10 -18 26 -34 17 -16 27 -29 22 -29 -5 0 -1 -5 9 -11 9 -5 17
-16 17 -24 0 -7 3 -15 8 -17 7 -3 63 -73 106 -133 11 -14 27 -34 35 -44 9 -10
27 -33 41 -51 14 -19 35 -44 48 -56 12 -13 22 -25 22 -28 0 -3 12 -18 28 -34
60 -64 92 -102 92 -112 0 -6 5 -8 10 -5 5 3 10 2 10 -3 0 -5 36 -46 80 -91 44
-46 80 -85 80 -87 0 -9 28 -34 39 -34 5 0 13 -9 16 -21 4 -11 9 -18 12 -15 7
7 33 -19 33 -33 0 -6 5 -11 10 -11 6 0 37 -26 69 -57 32 -32 84 -80 114 -107
31 -27 53 -54 50 -59 -3 -6 -1 -7 5 -3 12 7 94 -63 87 -74 -3 -4 3 -7 13 -6 9
0 16 -5 14 -12 -1 -8 2 -11 7 -7 6 3 23 -5 38 -19 50 -44 70 -61 103 -86 18
-14 39 -31 47 -38 7 -7 13 -11 13 -8 0 5 36 -23 66 -51 7 -7 16 -13 19 -13 4
0 21 -11 39 -25 41 -33 42 -34 111 -80 33 -22 62 -43 63 -47 2 -5 10 -8 17 -8
7 0 15 -3 17 -8 2 -4 57 -41 123 -82 66 -40 122 -76 125 -79 3 -3 12 -7 20 -9
8 -2 17 -8 18 -13 2 -5 8 -9 13 -9 5 0 26 -11 47 -23 20 -13 74 -43 119 -67
45 -24 80 -46 78 -51 -3 -4 4 -5 15 -2 11 3 20 0 20 -6 0 -6 9 -11 20 -11 11
0 20 -4 20 -10 0 -5 7 -10 16 -10 8 0 13 -4 10 -9 -4 -5 3 -7 14 -4 12 3 20 0
20 -6 0 -7 5 -9 10 -6 6 3 10 1 10 -5 0 -6 4 -9 9 -5 6 3 14 -3 20 -12 5 -10
11 -16 13 -14 7 10 78 -21 72 -31 -4 -6 -2 -8 4 -4 6 3 39 -7 74 -22 110 -51
171 -77 177 -77 3 0 13 -5 21 -10 8 -5 22 -10 30 -10 8 0 14 -6 12 -14 -3 -12
0 -12 12 -1 9 7 16 8 16 3 0 -5 6 -10 13 -10 6 -1 48 -15 92 -33 44 -17 87
-33 95 -35 8 -2 15 -4 15 -5 0 -1 9 -3 19 -5 10 -2 22 -7 25 -12 3 -4 17 -9
31 -11 14 -1 32 -5 40 -9 8 -3 19 -7 23 -7 4 -1 12 -8 17 -16 7 -11 10 -11 10
-2 0 9 5 10 18 4 9 -5 47 -17 84 -27 40 -10 65 -22 61 -28 -3 -6 -1 -7 5 -3 6
4 37 0 69 -9 32 -9 72 -18 88 -21 17 -4 38 -10 48 -15 9 -5 17 -8 17 -5 0 3
21 -1 48 -9 26 -7 61 -16 77 -19 17 -3 41 -8 55 -11 14 -4 33 -7 43 -7 9 1 17
-3 17 -7 0 -4 10 -7 23 -7 12 -1 38 -4 57 -8 30 -5 62 -11 123 -20 7 -1 18 -6
26 -10 10 -7 12 -6 6 4 -6 10 -4 11 6 4 17 -10 32 -14 79 -18 73 -8 146 -17
178 -22 18 -3 54 -7 80 -10 26 -2 72 -6 102 -9 72 -8 165 -13 268 -16 46 -2
85 -6 88 -11 3 -5 11 -5 17 -1 17 11 31 10 40 -2 4 -7 10 -7 15 0 11 15 32 17
32 3 0 -9 3 -9 12 0 8 8 15 9 25 1 7 -7 13 -7 13 -2 0 5 9 9 20 9 11 0 20 -4
20 -9 0 -4 5 -5 11 -1 17 10 119 12 125 2 3 -4 11 -5 17 -1 19 13 107 12 107
-1 0 -7 3 -7 8 1 5 7 49 14 117 18 135 7 220 13 220 15 0 1 20 4 45 5 25 1 45
4 45 5 0 1 11 3 25 5 14 1 52 6 85 10 33 5 74 10 90 11 17 1 30 3 30 5 0 1 11
2 25 4 14 1 39 5 57 9 17 4 46 9 64 11 17 3 34 7 37 10 3 2 12 -1 20 -8 13 -9
14 -9 8 1 -4 7 -2 12 6 13 7 0 20 2 28 4 8 2 30 6 49 10 19 3 38 8 42 10 4 3
22 7 40 10 52 7 79 13 180 39 51 14 97 22 101 20 4 -3 8 -1 8 4 0 9 100 35
108 28 2 -3 11 1 18 9 8 7 22 12 31 11 10 -2 21 1 24 6 4 6 18 11 33 11 14 1
26 6 26 11 0 4 9 6 20 3 11 -3 20 -1 20 5 0 6 9 8 20 5 11 -3 18 -1 14 4 -3 5
2 9 10 9 28 0 31 1 51 14 20 13 84 31 98 28 4 -1 7 3 7 9 0 8 5 7 15 -1 13
-11 14 -10 10 2 -4 11 2 17 22 21 15 3 39 10 53 15 14 5 28 10 32 11 4 1 20 8
35 16 14 8 30 12 35 9 4 -3 8 0 8 5 0 6 9 11 19 11 11 0 27 7 35 16 9 8 16 13
16 9 0 -3 14 1 30 10 17 9 30 12 30 8 0 -5 4 -3 8 2 11 15 82 46 92 40 4 -3
11 2 14 10 3 8 9 14 13 13 4 -2 49 17 98 42 50 24 93 43 98 42 4 -1 7 3 7 9 0
5 4 8 9 4 5 -3 12 -1 15 4 4 5 45 29 94 53 48 23 90 48 94 53 5 7 8 7 8 0 0
-5 4 -5 8 2 4 6 14 13 21 15 8 2 23 10 33 18 10 8 20 13 21 10 1 -2 11 4 22
13 11 9 24 17 29 16 5 0 12 3 15 8 7 10 75 53 116 73 17 8 32 18 35 21 12 13
156 103 163 101 4 -1 7 2 7 7 0 5 15 18 33 30 17 11 41 26 52 33 11 7 22 15
25 18 15 15 80 60 80 56 0 -4 9 3 20 14 12 12 25 18 31 15 5 -4 8 -1 7 5 -2 7
6 17 17 23 11 7 25 19 32 27 7 8 13 12 13 8 0 -4 10 3 23 15 46 43 68 58 79
51 6 -4 8 -3 5 3 -4 6 33 43 81 83 48 39 113 95 144 123 32 29 62 51 68 50 5
-2 7 4 4 12 -4 8 -2 15 3 15 5 0 31 21 58 48 27 26 53 46 57 44 4 -1 8 5 8 13
0 13 12 19 32 16 4 0 5 6 2 14 -4 9 2 18 17 24 13 5 21 10 17 10 -4 1 12 20
35 44 22 23 45 41 49 39 4 -1 8 2 8 7 0 17 82 101 93 94 5 -3 7 -2 4 4 -3 5
19 33 49 63 30 29 54 57 54 62 0 5 4 7 8 4 4 -2 13 4 20 15 11 17 -12 43 -235
266 -137 136 -247 250 -246 255 2 4 -1 8 -7 8 -14 0 -276 261 -273 271 2 5 -2
9 -7 9 -15 0 -106 91 -102 102 1 5 -2 7 -8 3 -5 -3 -10 1 -10 9 0 9 -4 15 -8
13 -12 -3 -668 654 -664 665 1 5 -2 7 -6 4 -5 -3 -30 14 -56 38 -25 24 -46 42
-46 40 0 -1 -10 7 -23 19 -47 45 -108 97 -112 97 -6 0 -49 36 -82 67 -13 12
-23 19 -23 15 -1 -4 -10 4 -20 17 -11 13 -20 20 -20 16 0 -3 -7 0 -15 7 -24
22 -39 32 -112 79 -18 12 -33 25 -33 30 0 5 -6 8 -12 6 -7 -1 -12 4 -10 11 1
8 -2 11 -7 8 -5 -3 -42 16 -82 43 -41 27 -91 57 -111 68 -21 11 -34 24 -30 28
4 5 2 5 -4 2 -6 -3 -26 4 -45 15 -19 12 -63 37 -99 56 -36 19 -68 39 -72 46
-4 6 -8 8 -8 4 0 -4 -30 8 -67 26 -103 51 -204 97 -246 112 -20 7 -54 21 -75
30 -59 26 -72 31 -167 64 -49 18 -97 35 -105 38 -22 8 -22 8 -55 16 -16 5 -49
14 -72 22 -23 7 -52 16 -65 18 -13 3 -39 10 -58 16 -19 6 -46 13 -60 16 -14 3
-61 14 -105 25 -44 11 -100 23 -125 26 -25 3 -56 10 -70 15 -14 6 -43 12 -65
14 -73 7 -211 23 -240 27 -5 1 -13 7 -17 12 -5 6 -8 5 -8 -3 0 -8 -5 -10 -12
-6 -7 4 -26 7 -42 7 -17 0 -37 4 -43 10 -8 6 -13 6 -13 0 0 -5 -20 -7 -47 -4
-27 3 -61 6 -78 6 -16 0 -33 4 -37 10 -5 6 -8 5 -8 -3 0 -7 -5 -10 -11 -6 -21
13 -473 4 -599 -12 -19 -2 -55 -6 -80 -8 -99 -10 -218 -27 -290 -41 -14 -3
-37 -6 -52 -7 -16 -1 -28 -5 -28 -8 0 -3 -10 -5 -22 -6 -13 0 -35 -4 -50 -7
-16 -4 -40 -9 -55 -13 -16 -3 -64 -14 -108 -26 -44 -11 -87 -21 -95 -22 -8 -2
-23 -6 -32 -10 -9 -4 -22 -9 -30 -10 -7 -1 -32 -8 -56 -15 -23 -6 -48 -9 -54
-5 -6 4 -8 3 -5 -3 5 -8 -41 -27 -93 -39 -3 0 -18 -6 -35 -13 -16 -7 -34 -14
-40 -15 -5 -1 -16 -5 -22 -9 -13 -8 -48 -18 -70 -19 -7 -1 -13 -5 -13 -9 0 -4
-12 -10 -27 -15 -16 -4 -30 -8 -33 -9 -3 -1 -31 -13 -64 -28 -32 -15 -61 -27
-65 -27 -3 0 -23 -9 -44 -20 -20 -11 -37 -17 -37 -13 0 3 -8 -1 -17 -9 -15
-12 -37 -24 -63 -33 -20 -7 -46 -19 -50 -24 -10 -12 -185 -96 -197 -95 -6 1
-9 -5 -6 -15 4 -9 3 -13 -1 -9 -4 3 -29 -7 -54 -23 -26 -16 -59 -35 -74 -41
-16 -7 -28 -16 -28 -20 0 -4 -6 -8 -13 -8 -8 0 -22 -9 -32 -20 -10 -11 -20
-18 -23 -16 -2 3 -10 0 -18 -7 -28 -25 -40 -33 -56 -40 -10 -3 -18 -11 -18
-17 0 -6 -4 -9 -8 -6 -5 3 -20 -6 -35 -20 -15 -14 -32 -22 -39 -18 -6 4 -8 3
-5 -2 3 -5 -11 -21 -31 -34 -20 -14 -78 -57 -128 -97 -51 -40 -95 -69 -99 -65
-5 4 -5 1 -1 -5 4 -7 3 -13 -1 -13 -5 0 -32 -22 -61 -49 l-53 -49 -65 64 c-40
39 -63 68 -58 75 4 8 3 9 -4 5 -16 -10 -56 29 -47 45 5 7 4 10 -2 6 -13 -8
-76 47 -66 57 3 3 1 6 -6 6 -16 0 -41 25 -41 41 0 7 -3 10 -6 6 -7 -7 -154
140 -154 155 0 6 -3 9 -6 6 -3 -3 -15 4 -28 16 -15 14 -19 25 -13 34 7 9 6 11
-6 6 -10 -3 -27 6 -46 27 l-31 32 45 44 c25 23 50 43 56 43 5 0 8 4 5 9 -3 5
7 15 23 22 15 8 29 17 29 22 1 4 4 7 7 7 3 0 13 8 23 18 32 30 67 57 75 59 5
1 17 11 26 22 10 11 21 18 25 14 3 -3 6 1 6 10 0 9 3 16 8 14 4 -1 18 8 32 21
13 12 27 22 32 22 8 0 23 12 80 63 18 15 38 27 45 27 8 0 16 7 19 15 4 8 11
15 18 15 6 0 29 14 50 30 21 16 44 27 50 23 6 -3 8 -3 4 2 -4 4 16 23 45 41
28 18 57 38 64 44 7 5 17 10 23 10 6 0 18 7 27 16 9 8 23 12 31 9 9 -3 13 -3
9 1 -9 9 33 45 44 38 5 -3 9 0 9 5 0 6 7 11 15 11 8 0 15 4 15 9 0 7 28 19 47
19 3 0 9 4 12 9 9 13 59 43 71 43 6 0 18 7 27 15 8 8 19 13 24 10 5 -4 9 -2 9
3 0 8 28 20 47 20 3 0 9 5 12 10 9 15 192 103 201 97 4 -3 10 2 14 10 3 8 13
15 21 15 9 0 35 9 58 19 98 44 170 70 180 64 6 -3 7 -1 3 5 -4 8 0 12 11 12
11 0 23 4 29 8 19 16 114 43 125 36 8 -4 9 -3 5 4 -4 7 -2 13 3 13 6 1 14 3
19 4 4 1 22 6 40 10 17 4 32 11 32 15 0 3 6 7 13 7 30 2 117 29 117 36 0 4 5
5 10 2 6 -3 16 -3 23 2 6 4 18 8 25 9 7 1 36 10 65 19 28 9 66 17 82 18 17 1
36 8 43 15 16 14 35 6 25 -11 -3 -7 4 -3 16 7 12 11 27 21 34 22 62 10 77 13
86 18 6 4 28 8 49 10 21 1 44 6 50 10 7 4 17 4 22 1 6 -3 10 -2 10 4 0 6 6 8
14 5 8 -3 24 0 36 6 17 9 21 9 15 0 -6 -9 -3 -9 13 -1 12 6 39 12 62 14 22 1
40 4 40 8 0 3 10 5 23 6 45 2 130 14 140 20 6 4 7 1 2 -7 -6 -10 -4 -11 6 -4
16 10 23 11 99 18 30 2 55 5 55 6 0 2 172 12 217 13 28 0 45 4 41 10 -4 6 -1
7 8 2 18 -12 69 -14 69 -3 0 5 8 5 17 -1 9 -5 26 -6 37 -2 18 6 81 7 96 1 17
-6 62 -4 66 2 3 5 10 6 15 2 5 -3 6 -10 3 -16 -4 -5 5 -3 19 7 17 10 27 13 32
6 4 -7 12 -8 24 -2 9 5 22 6 29 3 6 -4 45 -7 87 -7 60 0 74 -3 70 -14 -4 -11
-3 -11 9 -2 17 14 57 11 68 -4 5 -6 8 -5 8 3 0 7 4 11 9 7 5 -3 49 -8 98 -11
49 -3 91 -11 95 -17 6 -9 8 -8 8 1 0 8 5 10 13 5 6 -4 21 -8 32 -9 55 -4 144
-15 177 -23 20 -5 39 -6 42 -4 2 3 11 1 18 -3 7 -4 19 -9 28 -9 18 -2 111 -17
125 -21 8 -2 99 -22 175 -39 8 -2 15 -4 15 -5 0 -1 11 -3 23 -4 13 -2 28 -9
33 -17 5 -8 9 -9 9 -2 0 6 9 9 20 6 11 -3 17 -10 13 -16 -3 -6 -1 -7 5 -3 11
7 41 0 150 -31 34 -11 60 -22 56 -25 -3 -4 4 -4 17 -1 15 4 20 3 15 -5 -5 -8
-1 -10 9 -6 21 8 395 -127 388 -140 -4 -5 -1 -6 6 -2 6 4 17 3 24 -2 7 -6 31
-16 55 -23 31 -9 41 -17 37 -27 -4 -11 -2 -12 8 -4 13 11 15 10 167 -61 25
-12 48 -26 51 -30 3 -5 9 -8 13 -8 20 3 26 0 21 -9 -3 -5 0 -8 7 -5 7 2 45
-13 83 -35 39 -21 95 -51 125 -66 30 -15 57 -30 60 -34 3 -4 40 -26 83 -49 42
-23 77 -47 77 -52 0 -5 6 -8 13 -7 6 2 11 -2 10 -8 -1 -8 6 -10 19 -6 17 4 20
2 15 -11 -4 -10 -2 -14 7 -11 7 3 41 -16 77 -41 35 -25 72 -48 82 -52 9 -3 17
-9 17 -13 0 -5 8 -11 18 -14 9 -3 33 -19 52 -36 19 -16 38 -30 43 -30 4 0 15
-8 25 -17 11 -10 32 -27 47 -38 16 -11 33 -25 39 -30 6 -6 35 -28 64 -49 28
-21 52 -42 52 -47 0 -5 11 -11 25 -15 14 -4 24 -9 21 -11 -3 -3 14 -20 37 -37
23 -18 58 -48 77 -66 19 -18 45 -39 58 -48 12 -8 22 -21 22 -28 0 -8 4 -13 9
-11 5 1 34 -24 65 -55 31 -31 56 -55 56 -52 0 2 12 -9 28 -26 15 -17 50 -54
79 -82 29 -28 50 -55 46 -61 -3 -6 -2 -8 3 -4 5 3 32 -19 59 -50 28 -30 62
-68 77 -85 16 -16 25 -35 21 -41 -3 -5 -1 -7 5 -3 5 3 25 -13 43 -36 19 -24
39 -49 46 -56 7 -8 11 -18 7 -23 -3 -5 0 -8 8 -7 7 2 12 -5 12 -14 -1 -10 4
-14 12 -11 8 3 14 1 14 -4 0 -9 11 -23 88 -119 23 -29 42 -57 42 -62 0 -6 4
-12 8 -14 4 -1 23 -25 42 -53 19 -27 39 -53 44 -56 5 -4 5 -13 1 -20 -5 -8 -5
-11 0 -7 12 12 36 -28 29 -49 -4 -14 -4 -15 4 -4 8 11 12 9 22 -10 7 -13 16
-26 19 -29 13 -10 74 -115 74 -128 0 -6 3 -10 5 -7 6 6 78 -117 74 -127 -1 -5
2 -8 6 -8 9 0 36 -51 32 -59 -1 -2 5 -8 14 -13 9 -5 14 -13 11 -19 -4 -5 -2
-9 3 -9 4 0 14 -16 22 -35 8 -19 17 -35 21 -35 4 0 9 -8 13 -17 3 -10 16 -36
29 -58 13 -22 47 -80 75 -130 29 -49 57 -97 62 -105 6 -8 16 -26 22 -40 20
-40 30 -41 66 -2 18 20 38 36 43 35 5 -2 9 4 9 13 0 8 5 12 10 9 6 -3 10 -1
10 4 0 14 77 91 90 91 5 0 9 4 7 8 -1 5 76 86 170 181 151 151 171 175 162
192 -5 11 -7 25 -3 31 4 7 3 8 -4 4 -7 -4 -12 -1 -12 8 0 9 -4 16 -8 16 -5 0
-14 16 -22 35 -8 19 -18 35 -22 35 -5 0 -6 5 -3 10 3 6 1 10 -5 10 -6 0 -8 5
-5 10 3 6 1 10 -4 10 -6 0 -11 9 -11 19 0 10 -7 21 -15 25 -8 3 -15 10 -15 17
0 6 -9 23 -20 39 -11 15 -17 30 -13 34 3 3 1 6 -5 6 -7 0 -12 7 -12 15 0 8 -4
15 -10 15 -5 0 -10 9 -10 19 0 11 -5 21 -10 23 -6 2 -12 13 -13 25 0 12 -4 20
-7 18 -3 -2 -30 38 -60 88 -29 51 -60 100 -68 110 -8 9 -12 17 -9 17 4 0 -3
11 -14 24 -12 13 -20 27 -19 31 1 4 -2 11 -7 14 -5 3 -29 35 -53 71 -24 36
-48 68 -54 72 -7 5 -7 8 -1 8 6 0 2 5 -7 11 -10 5 -18 16 -18 24 0 7 -3 15 -7
17 -10 4 -63 74 -63 82 0 4 -14 20 -30 38 -17 17 -28 33 -26 35 2 2 -6 14 -18
27 -44 46 -91 111 -90 123 1 7 -1 12 -5 11 -17 -2 -34 3 -28 8 6 7 5 8 -53 72
-22 24 -37 49 -33 54 3 6 2 8 -4 5 -5 -3 -27 15 -49 40 -39 46 -100 111 -222
238 -37 38 -66 73 -65 77 2 4 -1 7 -5 5 -5 -1 -29 17 -53 40 -151 145 -181
172 -194 177 -8 3 -15 10 -15 16 0 6 -4 8 -10 5 -5 -3 -10 1 -10 9 0 9 -4 16
-8 16 -5 0 -31 19 -58 43 -28 23 -70 58 -93 77 -24 19 -48 40 -54 45 -7 6 -36
28 -65 49 -29 21 -49 43 -45 48 3 7 1 8 -5 4 -9 -6 -58 25 -124 80 -10 7 -18
10 -18 6 0 -4 -5 1 -11 11 -5 9 -16 17 -22 17 -7 0 -19 9 -27 19 -7 11 -17 18
-22 15 -4 -3 -11 2 -14 10 -3 9 -10 13 -15 11 -5 -3 -16 3 -26 15 -10 11 -23
20 -30 20 -6 0 -16 6 -20 13 -4 7 -25 21 -45 31 -21 9 -38 20 -38 24 0 4 -18
16 -40 26 -22 11 -40 23 -40 28 0 5 -4 7 -9 3 -6 -3 -13 1 -18 9 -4 8 -10 14
-13 14 -13 0 -60 26 -60 34 0 5 -4 7 -9 4 -5 -4 -11 -3 -13 1 -1 5 -32 23 -68
42 -36 18 -69 39 -75 45 -5 6 -14 11 -20 11 -18 1 -65 28 -65 37 0 5 -4 7 -9
3 -5 -3 -17 2 -25 11 -9 8 -16 13 -16 10 0 -3 -47 19 -105 49 -58 30 -105 52
-105 48 0 -3 -9 2 -20 12 -11 10 -20 15 -20 11 0 -4 -12 0 -27 8 -16 8 -50 24
-78 36 -27 12 -63 28 -80 36 -16 7 -59 24 -95 37 -36 14 -95 36 -132 51 -36
14 -69 26 -72 26 -2 0 -17 5 -33 12 -15 6 -33 12 -39 13 -33 7 -54 17 -54 26
0 6 -5 7 -10 4 -11 -7 -81 15 -91 28 -3 5 -8 7 -10 6 -6 -5 -122 23 -134 32
-6 4 -22 10 -35 12 -42 8 -84 19 -95 25 -5 4 -16 7 -25 8 -18 2 -44 8 -130 30
-36 9 -72 17 -80 18 -8 2 -28 6 -45 9 -16 4 -41 9 -55 11 -14 2 -59 11 -100
19 -71 14 -122 24 -180 33 -14 2 -41 7 -60 10 -19 3 -57 8 -85 10 -27 3 -61 7
-75 10 -14 2 -50 7 -80 9 -30 3 -77 7 -105 11 -79 8 -158 13 -303 19 -75 3
-137 7 -140 10 -3 3 -11 0 -18 -6 -7 -6 -19 -7 -26 -3 -16 10 -50 10 -66 0 -7
-4 -12 -2 -12 4 0 7 -6 8 -18 1 -11 -6 -24 -6 -35 0 -11 7 -17 6 -17 -1 0 -7
-6 -8 -19 -1 -10 6 -21 8 -24 5z m207 -2349 c44 -3 84 -8 88 -11 10 -7 57 -17
81 -18 9 0 17 -3 17 -6 0 -4 7 -7 15 -8 8 -1 22 -3 30 -4 8 -1 15 -5 15 -10 0
-4 3 -7 8 -6 8 3 75 -23 82 -32 3 -3 22 -14 43 -24 23 -11 35 -22 31 -29 -4
-7 -4 -9 1 -5 11 10 47 -11 40 -22 -3 -6 0 -7 8 -5 18 7 132 -99 123 -114 -4
-7 -2 -9 7 -5 17 6 49 -34 40 -50 -3 -6 -3 -8 2 -4 9 8 35 -15 35 -31 0 -6 5
-11 10 -11 6 0 10 -6 10 -14 0 -8 4 -16 9 -18 13 -5 81 -145 74 -152 -4 -3 -1
-6 5 -6 7 0 12 -10 12 -23 0 -13 5 -28 12 -35 7 -7 9 -12 5 -12 -4 0 -1 -16 7
-35 10 -22 11 -35 4 -35 -7 0 -7 -4 1 -14 6 -7 13 -41 16 -75 2 -34 7 -66 10
-71 3 -6 1 -10 -5 -10 -6 0 -8 -5 -4 -12 8 -13 8 -54 0 -103 -2 -16 -8 -48
-11 -70 -11 -65 -14 -78 -31 -130 -9 -27 -24 -58 -32 -67 -8 -10 -12 -18 -8
-18 8 0 -57 -123 -77 -146 -7 -7 -21 -25 -32 -39 -38 -50 -108 -125 -116 -125
-4 0 -21 -13 -37 -30 -17 -16 -38 -30 -47 -30 -9 0 -14 -4 -11 -8 12 -19 -263
-140 -286 -126 -4 3 -8 1 -8 -4 0 -27 -326 -38 -407 -13 -2 1 -5 1 -8 1 -17 2
-116 34 -145 47 -77 34 -140 68 -140 75 0 4 -7 8 -15 8 -8 0 -15 5 -15 10 0 6
-3 9 -7 8 -12 -4 -112 76 -112 90 -1 6 -7 12 -15 12 -7 0 -20 10 -29 23 -8 12
-23 31 -34 42 -45 48 -123 175 -123 202 0 7 -4 13 -10 13 -5 0 -10 6 -10 14 0
8 -5 27 -12 43 -6 15 -12 31 -13 36 -2 4 -3 8 -5 10 -4 5 -11 45 -13 78 -1 21
-5 35 -8 33 -10 -6 -15 70 -12 176 3 126 5 150 13 150 3 0 6 10 6 23 0 35 25
117 36 117 5 0 6 4 3 10 -3 5 1 22 9 37 8 16 20 43 28 61 7 17 16 32 20 32 5
0 8 4 8 10 0 16 70 121 86 127 8 3 14 10 14 15 0 16 59 70 70 63 5 -3 7 0 4 9
-3 9 2 17 15 21 12 3 21 13 21 21 0 8 5 12 10 9 6 -3 10 -1 10 4 0 6 6 11 14
11 8 0 16 7 20 15 3 8 12 15 20 15 8 0 21 6 28 13 17 16 138 80 138 72 0 -3
13 1 29 9 16 9 31 12 35 9 3 -4 6 -1 6 5 0 6 9 9 20 7 11 -2 20 0 20 4 0 4 6
8 13 8 6 1 30 4 52 8 22 4 64 8 92 9 29 2 56 6 59 9 4 4 10 5 13 3 3 -2 42 -7
85 -11z m-1661 -347 c-17 -22 -60 -172 -62 -217 -1 -8 -8 -11 -18 -7 -17 6
-17 5 -1 -7 10 -8 15 -16 12 -19 -6 -6 -15 -51 -19 -93 -1 -16 -4 -30 -5 -30
-1 0 -2 -30 -4 -66 -1 -36 -6 -71 -11 -79 -5 -9 -4 -11 3 -6 9 5 10 1 3 -16
-4 -13 -7 -32 -5 -43 3 -21 16 -175 17 -212 1 -13 3 -23 7 -23 3 0 5 -10 6
-22 1 -55 36 -205 56 -241 8 -15 7 -18 -4 -11 -7 4 -4 -2 6 -14 11 -12 17 -22
15 -23 -2 0 -12 -2 -21 -4 -10 -2 -18 1 -18 6 0 5 -6 9 -14 9 -8 0 -22 8 -32
18 -10 9 -19 16 -21 14 -4 -3 -114 49 -123 58 -3 3 -26 15 -53 28 -26 13 -45
28 -42 33 4 5 0 6 -8 3 -8 -3 -21 2 -30 10 -9 9 -21 16 -27 16 -6 0 -8 4 -5
10 3 5 0 7 -8 5 -15 -7 -60 29 -50 39 4 4 0 4 -9 1 -8 -3 -22 1 -31 9 -9 9
-19 16 -22 16 -17 0 -65 43 -59 52 5 7 2 8 -6 3 -8 -5 -17 -2 -24 7 -6 8 -15
16 -21 17 -5 2 -9 8 -7 13 2 6 -4 8 -13 4 -9 -3 -18 1 -21 9 -4 8 -12 15 -20
15 -8 0 -19 9 -26 20 -7 11 -16 20 -21 20 -8 0 -24 12 -62 48 -14 13 -25 20
-25 17 0 -3 -10 3 -22 15 -12 11 -26 20 -31 20 -5 0 -7 7 -4 14 4 11 1 13 -11
9 -15 -6 -15 -4 2 15 10 12 23 19 29 15 5 -3 7 -1 4 4 -8 13 17 36 27 25 4 -4
6 0 4 8 -2 8 2 14 9 15 6 0 20 10 31 23 11 12 22 22 26 22 4 0 16 9 28 20 12
10 25 17 30 14 4 -3 8 1 8 8 1 7 15 22 33 34 18 11 69 46 115 78 46 32 87 54
94 50 6 -4 8 -3 5 3 -3 5 13 20 36 33 23 13 48 30 55 37 8 7 18 11 23 8 5 -4
9 -1 9 5 0 7 7 10 15 6 8 -3 15 0 15 7 0 7 19 21 43 32 23 11 45 24 48 28 4 5
18 10 32 10 14 1 23 5 21 8 -4 7 26 23 39 21 4 -1 7 3 7 9 0 7 9 9 21 6 12 -3
18 -3 15 1 -4 3 8 14 26 24 39 21 54 23 41 6z m3187 -9 c0 -5 6 -8 13 -6 6 1
11 -4 9 -12 -3 -12 0 -12 12 -1 12 9 16 9 16 1 0 -7 4 -10 9 -6 6 3 14 -3 20
-12 5 -10 12 -17 15 -15 14 6 27 1 21 -8 -3 -5 0 -7 8 -4 8 3 22 -2 30 -11 9
-9 19 -15 22 -15 15 3 94 -43 89 -51 -3 -5 -2 -8 3 -7 11 4 73 -23 73 -31 0
-4 16 -13 35 -21 19 -7 32 -17 29 -22 -3 -4 4 -8 15 -8 12 0 21 -4 21 -10 0
-5 7 -10 15 -10 8 0 15 -4 15 -9 0 -5 9 -11 21 -14 13 -4 18 -10 13 -18 -5 -8
-3 -10 5 -4 8 4 21 -1 32 -14 11 -12 26 -21 34 -21 8 0 18 -6 22 -13 4 -6 27
-25 51 -41 24 -16 47 -36 52 -45 5 -9 12 -16 17 -15 8 1 73 -44 84 -58 3 -5
20 -19 38 -32 l32 -24 -54 -46 c-30 -25 -59 -46 -66 -46 -6 0 -11 -4 -11 -8 0
-16 -160 -133 -172 -126 -6 4 -8 3 -5 -3 3 -5 -12 -20 -33 -34 -22 -13 -40
-28 -40 -32 0 -5 -4 -6 -9 -2 -6 3 -13 0 -18 -7 -9 -14 -37 -33 -70 -47 -11
-6 -24 -15 -28 -21 -3 -5 -11 -8 -16 -5 -5 4 -9 2 -9 -3 0 -5 -26 -22 -57 -38
-32 -16 -60 -31 -63 -34 -16 -16 -60 -31 -71 -25 -7 5 -10 4 -5 -3 7 -12 -27
-35 -38 -25 -3 3 -6 1 -6 -5 0 -10 -43 -30 -46 -21 -1 2 -10 -3 -20 -12 -11
-9 -29 -20 -41 -23 -17 -5 -21 -3 -18 11 2 10 4 22 4 26 1 5 5 6 9 3 4 -2 9 5
9 17 1 12 4 31 6 42 3 11 6 24 6 28 1 5 5 5 11 2 6 -3 7 1 4 9 -8 20 15 119
30 128 8 6 8 8 -1 8 -8 0 -9 9 -4 28 4 15 6 37 5 50 -1 12 2 22 6 22 3 0 4 14
2 31 -4 24 -2 30 8 24 10 -6 11 -4 4 6 -12 19 -12 32 -1 47 5 6 6 12 1 12 -10
0 -10 78 0 87 3 3 0 15 -6 26 -9 17 -8 19 8 13 16 -5 17 -4 4 6 -14 12 -22 75
-24 186 -1 17 -4 32 -8 32 -4 0 -7 8 -6 18 0 22 -9 59 -18 74 -5 7 -3 8 7 3
12 -8 12 -6 1 8 -8 9 -12 22 -10 29 3 7 -1 19 -9 26 -11 12 -17 40 -16 79 1 7
-3 10 -8 7 -5 -3 -9 1 -9 10 0 8 -3 22 -6 30 -5 12 -2 15 10 10 9 -3 16 -10
16 -15z"/>
<path d="M6869 8003 c-13 -16 -12 -17 4 -4 9 7 17 15 17 17 0 8 -8 3 -21 -13z"/>
<path d="M5955 7880 c-3 -5 -1 -10 4 -10 6 0 11 5 11 10 0 6 -2 10 -4 10 -3 0
-8 -4 -11 -10z"/>
<path d="M6035 7880 c3 -5 8 -10 11 -10 2 0 4 5 4 10 0 6 -5 10 -11 10 -5 0
-7 -4 -4 -10z"/>
<path d="M5955 7800 c3 -5 8 -10 11 -10 2 0 4 5 4 10 0 6 -5 10 -11 10 -5 0
-7 -4 -4 -10z"/>
<path d="M6035 7801 c-3 -5 -2 -12 3 -15 5 -3 9 1 9 9 0 17 -3 19 -12 6z"/>
<path d="M6745 7720 c-3 -6 1 -7 9 -4 18 7 21 14 7 14 -6 0 -13 -4 -16 -10z"/>
<path d="M5953 7675 c0 -8 4 -12 9 -9 5 3 6 10 3 15 -9 13 -12 11 -12 -6z"/>
<path d="M6720 7660 c-9 -6 -10 -10 -3 -10 6 0 15 5 18 10 8 12 4 12 -15 0z"/>
<path d="M6875 7611 c-3 -5 -2 -12 3 -15 5 -3 9 1 9 9 0 17 -3 19 -12 6z"/>
<path d="M5875 7560 c-3 -5 -1 -10 4 -10 6 0 11 5 11 10 0 6 -2 10 -4 10 -3 0
-8 -4 -11 -10z"/>
<path d="M6266 7558 c3 -5 10 -6 15 -3 13 9 11 12 -6 12 -8 0 -12 -4 -9 -9z"/>
<path d="M7109 7523 c-13 -16 -12 -17 4 -4 9 7 17 15 17 17 0 8 -8 3 -21 -13z"/>
<path d="M6186 7478 c3 -5 10 -6 15 -3 13 9 11 12 -6 12 -8 0 -12 -4 -9 -9z"/>
<path d="M6273 7435 c0 -8 4 -12 9 -9 5 3 6 10 3 15 -9 13 -12 11 -12 -6z"/>
<path d="M5746 6802 c-3 -5 1 -9 9 -9 8 0 12 4 9 9 -3 4 -7 8 -9 8 -2 0 -6 -4
-9 -8z"/>
<path d="M6076 6433 c-6 -14 -5 -15 5 -6 7 7 10 15 7 18 -3 3 -9 -2 -12 -12z"/>
<path d="M4753 7485 c0 -8 4 -12 9 -9 5 3 6 10 3 15 -9 13 -12 11 -12 -6z"/>
<path d="M4753 7395 c0 -8 4 -12 9 -9 5 3 6 10 3 15 -9 13 -12 11 -12 -6z"/>
<path d="M4675 7360 c3 -5 8 -10 11 -10 2 0 4 5 4 10 0 6 -5 10 -11 10 -5 0
-7 -4 -4 -10z"/>
<path d="M4516 7322 c-3 -5 1 -9 9 -9 8 0 12 4 9 9 -3 4 -7 8 -9 8 -2 0 -6 -4
-9 -8z"/>
<path d="M4476 7238 c3 -5 10 -6 15 -3 13 9 11 12 -6 12 -8 0 -12 -4 -9 -9z"/>
<path d="M4095 7161 c-3 -5 -2 -12 3 -15 5 -3 9 1 9 9 0 17 -3 19 -12 6z"/>
<path d="M4435 7161 c-3 -5 -2 -12 3 -15 5 -3 9 1 9 9 0 17 -3 19 -12 6z"/>
<path d="M4196 7093 c-6 -14 -5 -15 5 -6 7 7 10 15 7 18 -3 3 -9 -2 -12 -12z"/>
<path d="M4275 7040 c-3 -5 -1 -10 4 -10 6 0 11 5 11 10 0 6 -2 10 -4 10 -3 0
-8 -4 -11 -10z"/>
<path d="M4426 6922 c-3 -5 1 -9 9 -9 8 0 12 4 9 9 -3 4 -7 8 -9 8 -2 0 -6 -4
-9 -8z"/>
<path d="M8155 7640 c3 -5 8 -10 11 -10 2 0 4 5 4 10 0 6 -5 10 -11 10 -5 0
-7 -4 -4 -10z"/>
<path d="M8190 7580 c0 -5 5 -10 11 -10 5 0 7 5 4 10 -3 6 -8 10 -11 10 -2 0
-4 -4 -4 -10z"/>
<path d="M8235 7581 c-3 -5 -2 -12 3 -15 5 -3 9 1 9 9 0 17 -3 19 -12 6z"/>
<path d="M8340 7560 c-9 -6 -10 -10 -3 -10 6 0 15 5 18 10 8 12 4 12 -15 0z"/>
<path d="M8236 7467 c3 -10 9 -15 12 -12 3 3 0 11 -7 18 -10 9 -11 8 -5 -6z"/>
<path d="M8285 7360 c-3 -6 1 -7 9 -4 18 7 21 14 7 14 -6 0 -13 -4 -16 -10z"/>
<path d="M8546 7358 c3 -5 10 -6 15 -3 13 9 11 12 -6 12 -8 0 -12 -4 -9 -9z"/>
<path d="M8673 7325 c0 -8 4 -12 9 -9 5 3 6 10 3 15 -9 13 -12 11 -12 -6z"/>
<path d="M8315 7280 c-3 -5 -1 -10 4 -10 6 0 11 5 11 10 0 6 -2 10 -4 10 -3 0
-8 -4 -11 -10z"/>
<path d="M8390 7281 c0 -6 4 -13 10 -16 6 -3 7 1 4 9 -7 18 -14 21 -14 7z"/>
<path d="M8310 7221 c0 -6 4 -12 8 -15 5 -3 9 1 9 9 0 8 -4 15 -9 15 -4 0 -8
-4 -8 -9z"/>
<path d="M8386 7202 c-3 -5 1 -9 9 -9 8 0 12 4 9 9 -3 4 -7 8 -9 8 -2 0 -6 -4
-9 -8z"/>
<path d="M8235 7131 c-3 -5 -2 -12 3 -15 5 -3 9 1 9 9 0 17 -3 19 -12 6z"/>
<path d="M8273 6845 c0 -8 4 -12 9 -9 5 3 6 10 3 15 -9 13 -12 11 -12 -6z"/>
<path d="M6715 9651 c-3 -5 -2 -12 3 -15 5 -3 9 1 9 9 0 17 -3 19 -12 6z"/>
<path d="M6036 9513 c-6 -14 -5 -15 5 -6 7 7 10 15 7 18 -3 3 -9 -2 -12 -12z"/>
<path d="M5069 9443 c-13 -16 -12 -17 4 -4 9 7 17 15 17 17 0 8 -8 3 -21 -13z"/>
<path d="M5990 9440 c0 -5 5 -10 11 -10 5 0 7 5 4 10 -3 6 -8 10 -11 10 -2 0
-4 -4 -4 -10z"/>
<path d="M10030 9440 c0 -5 5 -10 11 -10 5 0 7 5 4 10 -3 6 -8 10 -11 10 -2 0
-4 -4 -4 -10z"/>
<path d="M6315 9411 c-3 -5 -2 -12 3 -15 5 -3 9 1 9 9 0 17 -3 19 -12 6z"/>
<path d="M6190 9399 c0 -5 5 -7 10 -4 6 3 10 8 10 11 0 2 -4 4 -10 4 -5 0 -10
-5 -10 -11z"/>
<path d="M7196 9393 c-6 -14 -5 -15 5 -6 7 7 10 15 7 18 -3 3 -9 -2 -12 -12z"/>
<path d="M6156 9367 c3 -10 9 -15 12 -12 3 3 0 11 -7 18 -10 9 -11 8 -5 -6z"/>
<path d="M6270 9359 c0 -5 5 -7 10 -4 6 3 10 8 10 11 0 2 -4 4 -10 4 -5 0 -10
-5 -10 -11z"/>
<path d="M6159 9193 c-13 -16 -12 -17 4 -4 9 7 17 15 17 17 0 8 -8 3 -21 -13z"/>
<path d="M7675 9181 c-3 -5 -2 -12 3 -15 5 -3 9 1 9 9 0 17 -3 19 -12 6z"/>
<path d="M4660 9126 c0 -2 8 -10 18 -17 15 -13 16 -12 3 4 -13 16 -21 21 -21
13z"/>
<path d="M5075 9091 c-3 -5 -2 -12 3 -15 5 -3 9 1 9 9 0 17 -3 19 -12 6z"/>
<path d="M4436 8958 c3 -5 10 -6 15 -3 13 9 11 12 -6 12 -8 0 -12 -4 -9 -9z"/>
<path d="M8750 8961 c0 -6 4 -13 10 -16 6 -3 7 1 4 9 -7 18 -14 21 -14 7z"/>
<path d="M4630 8919 c0 -5 5 -7 10 -4 6 3 10 8 10 11 0 2 -4 4 -10 4 -5 0 -10
-5 -10 -11z"/>
<path d="M5673 8915 c0 -8 4 -12 9 -9 5 3 6 10 3 15 -9 13 -12 11 -12 -6z"/>
<path d="M4433 8845 c0 -8 4 -12 9 -9 5 3 6 10 3 15 -9 13 -12 11 -12 -6z"/>
<path d="M9540 8686 c0 -2 8 -10 18 -17 15 -13 16 -12 3 4 -13 16 -21 21 -21
13z"/>
<path d="M9119 8633 c-13 -16 -12 -17 4 -4 16 13 21 21 13 21 -2 0 -10 -8 -17
-17z"/>
<path d="M9630 8640 c0 -5 5 -10 11 -10 5 0 7 5 4 10 -3 6 -8 10 -11 10 -2 0
-4 -4 -4 -10z"/>
<path d="M9326 8558 c3 -5 10 -6 15 -3 13 9 11 12 -6 12 -8 0 -12 -4 -9 -9z"/>
<path d="M11010 8558 c0 -4 4 -8 9 -8 6 0 12 4 15 8 3 5 -1 9 -9 9 -8 0 -15
-4 -15 -9z"/>
<path d="M3666 8362 c-3 -5 1 -9 9 -9 8 0 15 4 15 9 0 4 -4 8 -9 8 -6 0 -12
-4 -15 -8z"/>
<path d="M3746 8358 c3 -5 10 -6 15 -3 13 9 11 12 -6 12 -8 0 -12 -4 -9 -9z"/>
<path d="M8799 8353 c-13 -16 -12 -17 4 -4 16 13 21 21 13 21 -2 0 -10 -8 -17
-17z"/>
<path d="M3110 8279 c0 -5 5 -7 10 -4 6 3 10 8 10 11 0 2 -4 4 -10 4 -5 0 -10
-5 -10 -11z"/>
<path d="M3030 8246 c0 -2 7 -7 16 -10 8 -3 12 -2 9 4 -6 10 -25 14 -25 6z"/>
<path d="M10040 8246 c0 -2 8 -10 18 -17 15 -13 16 -12 3 4 -13 16 -21 21 -21
13z"/>
<path d="M3066 8198 c3 -5 10 -6 15 -3 13 9 11 12 -6 12 -8 0 -12 -4 -9 -9z"/>
<path d="M3556 7847 c3 -10 9 -15 12 -12 3 3 0 11 -7 18 -10 9 -11 8 -5 -6z"/>
<path d="M10795 7491 c-3 -5 -2 -12 3 -15 5 -3 9 1 9 9 0 17 -3 19 -12 6z"/>
<path d="M2350 7119 c0 -5 5 -7 10 -4 6 3 10 8 10 11 0 2 -4 4 -10 4 -5 0 -10
-5 -10 -11z"/>
<path d="M10355 6960 c-3 -5 -1 -10 4 -10 6 0 11 5 11 10 0 6 -2 10 -4 10 -3
0 -8 -4 -11 -10z"/>
<path d="M2233 6885 c0 -8 4 -15 9 -15 4 0 8 4 8 9 0 6 -4 12 -8 15 -5 3 -9
-1 -9 -9z"/>
<path d="M10476 6878 c3 -5 10 -6 15 -3 13 9 11 12 -6 12 -8 0 -12 -4 -9 -9z"/>
<path d="M12396 6678 c3 -5 10 -6 15 -3 13 9 11 12 -6 12 -8 0 -12 -4 -9 -9z"/>
<path d="M12346 6598 c3 -5 10 -6 15 -3 13 9 11 12 -6 12 -8 0 -12 -4 -9 -9z"/>
<path d="M9515 6560 c-3 -5 -1 -10 4 -10 6 0 11 5 11 10 0 6 -2 10 -4 10 -3 0
-8 -4 -11 -10z"/>
<path d="M11790 6520 c0 -5 5 -10 11 -10 5 0 7 5 4 10 -3 6 -8 10 -11 10 -2 0
-4 -4 -4 -10z"/>
<path d="M9446 6478 c3 -5 10 -6 15 -3 13 9 11 12 -6 12 -8 0 -12 -4 -9 -9z"/>
<path d="M9515 6480 c3 -5 8 -10 11 -10 2 0 4 5 4 10 0 6 -5 10 -11 10 -5 0
-7 -4 -4 -10z"/>
<path d="M9676 6473 c-6 -14 -5 -15 5 -6 7 7 10 15 7 18 -3 3 -9 -2 -12 -12z"/>
<path d="M11835 6420 c-3 -5 -1 -10 4 -10 6 0 11 5 11 10 0 6 -2 10 -4 10 -3
0 -8 -4 -11 -10z"/>
<path d="M11990 6419 c0 -5 5 -7 10 -4 6 3 10 8 10 11 0 2 -4 4 -10 4 -5 0
-10 -5 -10 -11z"/>
<path d="M9356 6362 c-3 -5 1 -9 9 -9 8 0 12 4 9 9 -3 4 -7 8 -9 8 -2 0 -6 -4
-9 -8z"/>
<path d="M9750 6319 c0 -5 5 -7 10 -4 6 3 10 8 10 11 0 2 -4 4 -10 4 -5 0 -10
-5 -10 -11z"/>
<path d="M1555 6291 c-3 -5 -2 -12 3 -15 5 -3 9 1 9 9 0 17 -3 19 -12 6z"/>
<path d="M9740 6166 c0 -2 8 -10 18 -17 15 -13 16 -12 3 4 -13 16 -21 21 -21
13z"/>
<path d="M4395 5960 c3 -5 8 -10 11 -10 2 0 4 5 4 10 0 6 -5 10 -11 10 -5 0
-7 -4 -4 -10z"/>
<path d="M11195 5931 c-3 -5 -2 -12 3 -15 5 -3 9 1 9 9 0 17 -3 19 -12 6z"/>
<path d="M4550 5880 c0 -5 5 -10 11 -10 5 0 7 5 4 10 -3 6 -8 10 -11 10 -2 0
-4 -4 -4 -10z"/>
<path d="M11236 5882 c-3 -5 1 -9 9 -9 8 0 12 4 9 9 -3 4 -7 8 -9 8 -2 0 -6
-4 -9 -8z"/>
<path d="M4595 5849 c-4 -6 -5 -12 -2 -15 2 -3 7 2 10 11 7 17 1 20 -8 4z"/>
<path d="M4680 5840 c-9 -6 -10 -10 -3 -10 6 0 15 5 18 10 8 12 4 12 -15 0z"/>
<path d="M8869 5803 c-13 -16 -12 -17 4 -4 9 7 17 15 17 17 0 8 -8 3 -21 -13z"/>
<path d="M8265 5800 c-3 -6 1 -7 9 -4 18 7 21 14 7 14 -6 0 -13 -4 -16 -10z"/>
<path d="M11191 5727 c-8 -10 -7 -14 2 -14 8 0 14 6 14 14 0 7 -1 13 -2 13 -2
0 -8 -6 -14 -13z"/>
<path d="M8146 5722 c-3 -5 1 -9 9 -9 8 0 12 4 9 9 -3 4 -7 8 -9 8 -2 0 -6 -4
-9 -8z"/>
<path d="M8630 5719 c0 -5 5 -7 10 -4 6 3 10 8 10 11 0 2 -4 4 -10 4 -5 0 -10
-5 -10 -11z"/>
<path d="M8750 5640 c0 -5 5 -10 11 -10 5 0 7 5 4 10 -3 6 -8 10 -11 10 -2 0
-4 -4 -4 -10z"/>
<path d="M8510 5559 c0 -5 5 -7 10 -4 6 3 10 8 10 11 0 2 -4 4 -10 4 -5 0 -10
-5 -10 -11z"/>
<path d="M7755 5529 c-4 -6 -5 -12 -2 -15 2 -3 7 2 10 11 7 17 1 20 -8 4z"/>
<path d="M4785 5520 c-3 -6 1 -7 9 -4 18 7 21 14 7 14 -6 0 -13 -4 -16 -10z"/>
<path d="M8770 5519 c0 -5 5 -7 10 -4 6 3 10 8 10 11 0 2 -4 4 -10 4 -5 0 -10
-5 -10 -11z"/>
<path d="M8355 5480 c3 -5 8 -10 11 -10 2 0 4 5 4 10 0 6 -5 10 -11 10 -5 0
-7 -4 -4 -10z"/>
<path d="M6913 5235 c0 -8 4 -12 9 -9 5 3 6 10 3 15 -9 13 -12 11 -12 -6z"/>
<path d="M6875 5180 c3 -5 8 -10 11 -10 2 0 4 5 4 10 0 6 -5 10 -11 10 -5 0
-7 -4 -4 -10z"/>
<path d="M10555 5160 c-3 -5 -1 -10 4 -10 6 0 11 5 11 10 0 6 -2 10 -4 10 -3
0 -8 -4 -11 -10z"/>
<path d="M10359 4873 c-13 -16 -12 -17 4 -4 16 13 21 21 13 21 -2 0 -10 -8
-17 -17z"/>
<path d="M10510 4882 c0 -5 7 -9 15 -9 8 0 12 4 9 9 -3 4 -9 8 -15 8 -5 0 -9
-4 -9 -8z"/>
<path d="M9835 4811 c-3 -5 -2 -12 3 -15 5 -3 9 1 9 9 0 17 -3 19 -12 6z"/>
<path d="M9950 4816 c0 -2 8 -10 18 -17 15 -13 16 -12 3 4 -13 16 -21 21 -21
13z"/>
<path d="M10410 4720 c0 -5 5 -10 10 -10 6 0 10 5 10 10 0 6 -4 10 -10 10 -5
0 -10 -4 -10 -10z"/>
<path d="M9986 4682 c-2 -4 4 -8 14 -8 10 0 16 4 14 8 -3 4 -9 8 -14 8 -5 0
-11 -4 -14 -8z"/>
<path d="M3713 4515 c0 -8 4 -12 9 -9 5 3 6 10 3 15 -9 13 -12 11 -12 -6z"/>
<path d="M9953 4515 c0 -8 4 -12 9 -9 5 3 6 10 3 15 -9 13 -12 11 -12 -6z"/>
<path d="M10066 4502 c-3 -5 1 -9 9 -9 8 0 12 4 9 9 -3 4 -7 8 -9 8 -2 0 -6
-4 -9 -8z"/>
<path d="M3433 4355 c0 -8 4 -12 9 -9 5 3 6 10 3 15 -9 13 -12 11 -12 -6z"/>
<path d="M4439 4233 c-13 -16 -12 -17 4 -4 16 13 21 21 13 21 -2 0 -10 -8 -17
-17z"/>
<path d="M9866 4198 c3 -5 10 -6 15 -3 13 9 11 12 -6 12 -8 0 -12 -4 -9 -9z"/>
<path d="M4433 4165 c0 -8 4 -12 9 -9 5 3 6 10 3 15 -9 13 -12 11 -12 -6z"/>
<path d="M9076 4162 c-3 -5 1 -9 9 -9 8 0 12 4 9 9 -3 4 -7 8 -9 8 -2 0 -6 -4
-9 -8z"/>
<path d="M8636 4122 c-3 -5 1 -9 9 -9 8 0 12 4 9 9 -3 4 -7 8 -9 8 -2 0 -6 -4
-9 -8z"/>
<path d="M8870 4079 c0 -5 5 -7 10 -4 6 3 10 8 10 11 0 2 -4 4 -10 4 -5 0 -10
-5 -10 -11z"/>
<path d="M8915 4051 c-3 -5 -2 -12 3 -15 5 -3 9 1 9 9 0 17 -3 19 -12 6z"/>
<path d="M8396 4007 c3 -10 9 -15 12 -12 3 3 0 11 -7 18 -10 9 -11 8 -5 -6z"/>
<path d="M8673 4005 c0 -8 4 -15 9 -15 4 0 8 4 8 9 0 6 -4 12 -8 15 -5 3 -9
-1 -9 -9z"/>
<path d="M5349 3963 c-13 -16 -12 -17 4 -4 16 13 21 21 13 21 -2 0 -10 -8 -17
-17z"/>
<path d="M4935 3921 c-3 -5 -2 -12 3 -15 5 -3 9 1 9 9 0 17 -3 19 -12 6z"/>
<path d="M7187 3919 c7 -7 15 -10 18 -7 3 3 -2 9 -12 12 -14 6 -15 5 -6 -5z"/>
<path d="M7519 3913 c-13 -16 -12 -17 4 -4 16 13 21 21 13 21 -2 0 -10 -8 -17
-17z"/>
<path d="M8180 3926 c0 -2 8 -10 18 -17 15 -13 16 -12 3 4 -13 16 -21 21 -21
13z"/>
<path d="M8510 3926 c0 -2 7 -7 16 -10 8 -3 12 -2 9 4 -6 10 -25 14 -25 6z"/>
<path d="M5315 3880 c3 -5 8 -10 11 -10 2 0 4 5 4 10 0 6 -5 10 -11 10 -5 0
-7 -4 -4 -10z"/>
<path d="M5395 3880 c3 -5 8 -10 11 -10 2 0 4 5 4 10 0 6 -5 10 -11 10 -5 0
-7 -4 -4 -10z"/>
<path d="M8350 3886 c0 -2 7 -7 16 -10 8 -3 12 -2 9 4 -6 10 -25 14 -25 6z"/>
<path d="M8319 3818 c-5 -18 -6 -38 -1 -34 7 8 12 36 6 36 -2 0 -4 -1 -5 -2z"/>
<path d="M5636 3798 c3 -5 10 -6 15 -3 13 9 11 12 -6 12 -8 0 -12 -4 -9 -9z"/>
<path d="M7875 3800 c3 -5 8 -10 11 -10 2 0 4 5 4 10 0 6 -5 10 -11 10 -5 0
-7 -4 -4 -10z"/>
<path d="M7950 3799 c0 -5 5 -7 10 -4 6 3 10 8 10 11 0 2 -4 4 -10 4 -5 0 -10
-5 -10 -11z"/>
<path d="M8025 3800 c-3 -6 1 -7 9 -4 18 7 21 14 7 14 -6 0 -13 -4 -16 -10z"/>
<path d="M6146 3762 c-3 -5 1 -9 9 -9 8 0 12 4 9 9 -3 4 -7 8 -9 8 -2 0 -6 -4
-9 -8z"/>
<path d="M6759 3753 c-13 -16 -12 -17 4 -4 16 13 21 21 13 21 -2 0 -10 -8 -17
-17z"/>
<path d="M7510 3766 c0 -2 7 -7 16 -10 8 -3 12 -2 9 4 -6 10 -25 14 -25 6z"/>
<path d="M6273 3725 c0 -8 4 -12 9 -9 5 3 6 10 3 15 -9 13 -12 11 -12 -6z"/>
<path d="M6106 3718 c3 -5 10 -6 15 -3 13 9 11 12 -6 12 -8 0 -12 -4 -9 -9z"/>
<path d="M6625 3719 c-3 -4 2 -6 10 -5 21 3 28 13 10 13 -9 0 -18 -4 -20 -8z"/>
<path d="M7106 3722 c-2 -4 4 -8 14 -8 10 0 16 4 14 8 -3 4 -9 8 -14 8 -5 0
-11 -4 -14 -8z"/>
<path d="M6156 3678 c3 -5 10 -6 15 -3 13 9 11 12 -6 12 -8 0 -12 -4 -9 -9z"/>
<path d="M7436 3678 c3 -5 10 -6 15 -3 13 9 11 12 -6 12 -8 0 -12 -4 -9 -9z"/>
<path d="M6225 3660 c-3 -6 1 -7 9 -4 18 7 21 14 7 14 -6 0 -13 -4 -16 -10z"/>
<path d="M5153 3645 c0 -8 4 -12 9 -9 5 3 6 10 3 15 -9 13 -12 11 -12 -6z"/>
<path d="M7289 3603 c-13 -16 -12 -17 4 -4 16 13 21 21 13 21 -2 0 -10 -8 -17
-17z"/>
<path d="M5670 3606 c0 -2 7 -7 16 -10 8 -3 12 -2 9 4 -6 10 -25 14 -25 6z"/>
<path d="M6640 3600 c-9 -6 -10 -10 -3 -10 6 0 15 5 18 10 8 12 4 12 -15 0z"/>
</g>
</svg>
